<?xml version="1.0" encoding="UTF-8" standalone="no"?>
<!-- Uploaded to: SVG Repo, www.svgrepo.com, Generator: SVG Repo Mixer Tools -->

<svg
   width="800"
   height="800"
   viewBox="0 0 24 24"
   fill="none"
   version="1.1"
   id="svg1"
   sodipodi:docname="whatsapp.svg"
   inkscape:version="1.3 (0e150ed, 2023-07-21)"
   xmlns:inkscape="http://www.inkscape.org/namespaces/inkscape"
   xmlns:sodipodi="http://sodipodi.sourceforge.net/DTD/sodipodi-0.dtd"
   xmlns="http://www.w3.org/2000/svg"
   xmlns:svg="http://www.w3.org/2000/svg">
  <defs
     id="defs1" />
  <sodipodi:namedview
     id="namedview1"
     pagecolor="#ffffff"
     bordercolor="#000000"
     borderopacity="0.25"
     inkscape:showpageshadow="2"
     inkscape:pageopacity="0.0"
     inkscape:pagecheckerboard="true"
     inkscape:deskcolor="#d1d1d1"
     inkscape:zoom="0.295"
     inkscape:cx="398.30508"
     inkscape:cy="400"
     inkscape:window-width="1312"
     inkscape:window-height="449"
     inkscape:window-x="0"
     inkscape:window-y="32"
     inkscape:window-maximized="0"
     inkscape:current-layer="svg1" />
  <path
     d="M 20.412758,3.4696689 C 19.312421,2.361106 18.002701,1.4823819 16.55985,0.88457319 15.116848,0.28676464 13.56938,-0.01816598 12.007505,-0.01250743 9.9195497,-0.01046617 7.8686378,0.54013801 6.0603527,1.5841605 4.2520675,2.628183 2.7498386,4.128986 1.704075,5.9362506 0.65831144,7.7435303 0.1057561,9.7938867 0.10170356,11.881841 0.09766606,13.969947 0.64229644,16.02233 1.6810506,17.833661 L 0,24.002517 6.30394,22.351485 c 1.7407129,0.968405 3.69666,1.484578 5.688555,1.500938 3.166529,1.5e-4 6.204879,-1.250582 8.453584,-3.479775 C 22.694934,18.143606 23.972233,15.116363 24,11.949984 23.989435,10.369947 23.667092,8.8075299 23.051557,7.3523111 22.436022,5.8970761 21.539212,4.5776614 20.412758,3.4696689 Z M 12.007505,21.796138 c -1.774559,0.0012 -3.5166832,-0.475797 -5.0431522,-1.380863 L 6.6041275,20.190134 2.8667917,21.180753 3.8574109,17.533474 3.6172608,17.158239 C 2.3403377,15.097001 1.8637748,12.638914 2.2778537,10.249721 2.6919324,7.8606032 3.9678949,5.7063068 5.864015,4.1949673 7.76015,2.6836126 10.14469,1.9201905 12.566004,2.0493162 c 2.421313,0.1291107 4.711295,1.1418086 6.435872,2.8462438 1.885179,1.8434373 2.964353,4.3579893 3.001876,6.994386 -0.02371,2.635498 -1.087429,5.154972 -2.959549,7.010281 -1.87197,1.855161 -4.401051,2.896061 -7.036698,2.895911 z m 5.418386,-7.414634 c -0.300187,-0.150094 -1.756098,-0.870544 -2.026266,-0.9606 -0.270169,-0.09006 -0.480301,-0.150094 -0.675422,0.150093 -0.293584,0.402401 -0.609382,0.788142 -0.945592,1.155723 -0.165103,0.210131 -0.345216,0.22514 -0.645403,0 -1.711519,-0.676323 -3.1374107,-1.922101 -4.0375232,-3.527205 -0.315197,-0.525328 0.3001876,-0.495309 0.870544,-1.6210136 0.042176,-0.081197 0.06409,-0.171256 0.06409,-0.2626637 0,-0.091402 -0.02191,-0.1814636 -0.06409,-0.2626638 0,-0.1501086 -0.675422,-1.6210289 -0.9155721,-2.2063943 C 8.8105066,6.2614137 8.5703564,6.35147 8.3752345,6.3364606 H 7.7898686 C 7.6381988,6.3387898 7.4887805,6.3734739 7.3515948,6.4381791 7.214409,6.5028842 7.0926229,6.5961379 6.9943715,6.711695 6.657591,7.0391697 6.3949118,7.4350277 6.22403,7.8725804 6.0531482,8.3101344 5.9780413,8.7792378 6.0037524,9.2482955 c 0.094109,1.1228515 0.516968,2.1930205 1.2157598,3.0769235 1.2790995,1.914896 3.0320448,3.466116 5.0881798,4.502814 1.078424,0.629493 2.331708,0.892758 3.572233,0.750469 0.413058,-0.08195 0.804353,-0.249906 1.148218,-0.493059 0.344015,-0.243001 0.632946,-0.555796 0.848029,-0.917823 0.199325,-0.441876 0.262064,-0.933133 0.180113,-1.410881 -0.135084,-0.150095 -0.330207,-0.225142 -0.630394,-0.375235 z"
     fill="#000000"
     id="path1"
     style="stroke-width:1.50094" />
</svg>
