<?xml version="1.0" encoding="UTF-8" standalone="no"?>
<svg
   width="292.98965"
   zoomAndPan="magnify"
   viewBox="0 0 219.74224 224.24187"
   height="298.98917"
   preserveAspectRatio="xMidYMid"
   version="1.0"
   id="svg976"
   sodipodi:docname="Platinum Bond, James_007 27042026.svg"
   xmlns:inkscape="http://www.inkscape.org/namespaces/inkscape"
   xmlns:sodipodi="http://sodipodi.sourceforge.net/DTD/sodipodi-0.dtd"
   xmlns="http://www.w3.org/2000/svg"
   xmlns:svg="http://www.w3.org/2000/svg">
  <sodipodi:namedview
     id="namedview976"
     pagecolor="#ffffff"
     bordercolor="#000000"
     borderopacity="0.25"
     inkscape:showpageshadow="2"
     inkscape:pageopacity="0.0"
     inkscape:pagecheckerboard="0"
     inkscape:deskcolor="#d1d1d1" />
  <defs
     id="defs32">
    <clipPath
       id="d82ad30403">
      <path
         d="M 0.015625,0 H 594.98437 V 841.5 H 0.015625 Z m 0,0"
         clip-rule="nonzero"
         id="path2" />
    </clipPath>
    <clipPath
       id="9318124394">
      <path
         d="M 187.49609,302 H 373 V 518 H 187.49609 Z m 0,0"
         clip-rule="nonzero"
         id="path12" />
    </clipPath>
    <clipPath
       id="99ea24e437">
      <path
         d="M 212,297.90625 H 407.13281 V 522.03906 H 212 Z m 0,0"
         clip-rule="nonzero"
         id="path13" />
    </clipPath>
    <clipPath
       id="1cc06f3132">
      <rect
         x="0"
         width="595"
         y="0"
         height="842"
         id="rect32" />
    </clipPath>
  </defs>
  <g
     clip-path="url(#d82ad30403)"
     id="g976"
     transform="translate(-187.625,-297.90183)">
    <g
       id="g975">
      <g
         clip-path="url(#1cc06f3132)"
         id="g974">
        <g
           clip-path="url(#9318124394)"
           id="g198">
          <path
             fill="#3b88c3"
             d="M 187.625,302.67187 372.57031,411.44922 187.625,517.50781 229.91797,410.08984 187.625,302.67187"
             fill-opacity="1"
             fill-rule="nonzero"
             id="path197" />
        </g>
        <g
           clip-path="url(#99ea24e437)"
           id="g199">
          <path
             fill="#393839"
             d="m 215.35937,306.75 c 12.79688,7.52344 25.58985,15.05078 38.38282,22.57422 25.95312,15.26562 51.90234,30.52734 77.84765,45.78906 20.44532,12.02344 40.89063,24.05078 61.33203,36.07031 2.46094,1.44532 4.92188,2.89453 7.38282,4.33985 v -8.15625 c -12.9336,7.41797 -25.85938,14.82812 -38.78907,22.24218 -26.125,14.98438 -52.25,29.96485 -78.375,44.94922 -20.33203,11.66016 -40.66796,23.31641 -61,34.98047 -2.26171,1.29297 -4.51953,2.59375 -6.78125,3.88672 2.3125,1.78125 4.625,3.55859 6.9375,5.33594 8,-20.3125 15.9961,-40.625 23.99219,-60.9336 4.85938,-12.35156 9.72266,-24.69921 14.58594,-37.05078 1.14844,-2.92187 2.30078,-5.84375 3.44922,-8.76172 0.78515,-1.99218 0.1289,-3.53125 -0.58985,-5.35156 -9.4414,-23.97656 -18.8789,-47.95703 -28.3164,-71.92578 -4.375,-11.10937 -8.7461,-22.21875 -13.1211,-33.32422 -0.9414,-2.39453 -3.125,-4.03515 -5.80859,-3.30078 -2.28516,0.63281 -4.24219,3.41406 -3.30078,5.8125 8,20.3125 15.99609,40.62109 23.99219,60.92969 6.09765,15.5 12.19922,30.99219 18.29687,46.48437 v -2.50781 c -7.99609,20.30859 -15.99219,40.62109 -23.98828,60.93359 -6.09766,15.49219 -12.19922,30.98438 -18.30078,46.48438 -1.59375,4.04687 3.63281,7.22656 6.94141,5.33203 12.92578,-7.41016 25.85546,-14.82812 38.78125,-22.24219 26.125,-14.98437 52.2539,-29.96093 78.3789,-44.9414 20.33594,-11.66407 40.66797,-23.32422 60.9961,-34.98828 2.26562,-1.29297 4.52343,-2.58594 6.78515,-3.88672 3.08985,-1.76953 3.03516,-6.3711 0,-8.15625 -12.79687,-7.52344 -25.58984,-15.05078 -38.38672,-22.57813 -25.94922,-15.26172 -51.89453,-30.52344 -77.84765,-45.78515 -20.44141,-12.02344 -40.88672,-24.04688 -61.33203,-36.07422 -2.45704,-1.44532 -4.91797,-2.89453 -7.375,-4.33985 -5.26563,-3.09375 -10.01563,5.07032 -4.76954,8.15625"
             fill-opacity="1"
             fill-rule="nonzero"
             id="path198" />
        </g>
      </g>
    </g>
  </g>
</svg>
